0 FILE Escape_Backpack_Satellite.io
0 Untitled Model
0 Name: Escape_Backpack_Satellite
0 Author: 
0 CustomBrick
0 FlexibleBrickControlPointUnitLength -1
0 FlexibleBrickLockedControlPoint 
0 NumOfBricks 45
1 15 0.000000 -8.000000 20.000000 1.000000 0.000000 0.000000 0.000000 1.000000 0.000000 0.000000 0.000000 1.000000 3795.dat
0 STEP
1 25 50.000000 -16.000000 10.000000 1.000000 0.000000 0.000000 0.000000 1.000000 0.000000 0.000000 0.000000 1.000000 61252.dat
1 25 -30.000000 -16.000000 10.000000 1.000000 0.000000 0.000000 0.000000 1.000000 0.000000 0.000000 0.000000 1.000000 61252.dat
1 25 -30.000000 -16.000000 30.000000 -1.000000 0.000000 0.000000 0.000000 1.000000 0.000000 0.000000 0.000000 -1.000000 61252.dat
1 25 50.000000 -16.000000 30.000000 -1.000000 0.000000 0.000000 0.000000 1.000000 0.000000 0.000000 0.000000 -1.000000 61252.dat
1 25 10.000000 -16.000000 20.000000 1.000000 0.000000 0.000000 0.000000 1.000000 0.000000 0.000000 0.000000 1.000000 3021.dat
1 25 -50.000000 -16.000000 20.000000 0.000000 0.000000 1.000000 0.000000 1.000000 0.000000 -1.000000 0.000000 0.000000 2540.dat
0 STEP
1 0 40.000000 -24.000000 20.000000 1.000000 0.000000 0.000000 0.000000 1.000000 0.000000 0.000000 0.000000 1.000000 3680c01.dat
1 15 -10.000000 -24.000000 20.000000 0.000000 0.000000 -1.000000 0.000000 1.000000 0.000000 1.000000 0.000000 0.000000 bl_3069pb1206.dat
1 71 10.000000 -24.000000 20.000000 0.000000 0.000000 -1.000000 0.000000 1.000000 0.000000 1.000000 0.000000 0.000000 3069bpc3.dat
1 272 -40.000000 -24.000000 20.000000 1.000000 0.000000 0.000000 0.000000 1.000000 0.000000 0.000000 0.000000 1.000000 87580.dat
0 STEP
1 297 -70.000000 -14.000000 19.160000 0.000000 -1.000000 0.000000 -1.000000 0.000000 0.000000 0.000000 0.000000 -1.000000 11090.dat
1 297 -150.000000 -14.000010 19.160010 0.000000 1.000000 0.000000 0.000000 0.000000 1.000000 1.000000 0.000000 0.000000 87994.dat
1 72 -41.500000 -14.000010 -9.999969 0.000000 -1.000000 0.000000 0.000000 0.000000 1.000000 -1.000000 0.000000 0.000000 63965.dat
1 72 -40.400010 -14.000000 50.000030 0.000000 -1.000000 0.000000 0.000000 0.000000 1.000000 -1.000000 0.000000 0.000000 63965.dat
0 STEP
1 297 -150.000000 -14.000010 19.160010 0.000000 -1.000000 0.000000 0.000000 0.000000 -1.000000 1.000000 0.000000 0.000000 92690.dat
1 0 -176.000000 -14.000010 32.660020 -1.000000 0.000000 0.000000 0.000000 0.000000 -1.000000 0.000000 -1.000000 0.000000 10830p01.dat
1 0 -176.000000 -14.000010 5.660020 1.000000 0.000000 0.000000 0.000000 0.000001 -1.000000 0.000000 1.000000 0.000001 10830p01.dat
0 STEP
1 272 29.840000 -16.000010 -49.999990 1.000000 0.000000 0.000000 0.000000 1.000000 0.000000 0.000000 0.000000 1.000000 30350bpb105.dat
1 272 32.109990 -16.000000 90.000030 -1.000000 0.000000 0.000000 0.000000 1.000000 0.000000 0.000000 0.000000 -1.000000 30350bpb105.dat
1 272 50.000000 -32.000000 20.000000 0.000000 0.000000 -1.000000 0.000000 1.000000 0.000000 1.000000 0.000000 0.000000 3069b.dat
0 STEP
1 16 46.340900 -24.000000 13.555930 1.000000 0.000000 0.000000 0.000000 1.000000 0.000000 0.000000 0.000000 1.000000 telescope
0 STEP
1 72 -21.900010 -14.000000 50.000030 0.000000 0.000000 -1.000000 -1.000000 0.000000 0.000000 0.000000 1.000000 0.000000 11090.dat
1 72 -21.960000 -14.000010 -9.999969 0.000000 0.000000 1.000000 -1.000000 0.000000 0.000000 0.000000 -1.000000 0.000000 11090.dat
1 0 -21.900010 -14.000000 79.500020 -1.000000 0.000000 0.000000 0.000000 0.000000 -1.000000 0.000000 -1.000000 0.000000 10830p01.dat
1 0 -21.960000 -14.000020 -39.499970 1.000000 0.000000 0.000000 0.000000 0.000001 -1.000000 0.000000 1.000000 0.000001 10830p01.dat
0 STEP
1 72 -106.000000 -14.000020 19.160010 0.000000 -1.000000 0.000000 0.000000 0.000000 1.000000 -1.000000 0.000000 0.000000 m72907a53_20251116_031029.dat
1 72 -162.470000 -14.000010 19.160020 0.000000 -1.000000 0.000000 0.000000 0.000000 1.000000 -1.000000 0.000000 0.000000 m72907a53_20251116_031029.dat
1 72 -48.380000 -14.000000 50.000040 0.000000 -1.000000 0.000000 0.000000 0.000000 1.000000 -1.000000 0.000000 0.000000 m72907a53_20251116_031029.dat
1 72 -49.300000 -14.000020 -9.999969 0.000000 -1.000000 0.000000 0.000000 0.000000 1.000000 -1.000000 0.000000 0.000000 m72907a53_20251116_031029.dat
0 STEP
1 71 -38.479180 -54.000000 21.298890 0.000000 -0.760406 -0.649448 1.000000 0.000000 0.000000 0.000000 -0.649448 0.760406 32828.dat
1 71 -44.562420 -54.000020 16.103320 0.000000 -0.760406 0.649448 -1.000000 0.000000 0.000000 0.000000 -0.649448 -0.760406 4740.dat
1 297 -50.645690 -54.000020 10.907710 0.000000 -0.760406 0.649448 -1.000000 0.000000 0.000000 0.000000 -0.649448 -0.760406 85861.dat
0 STEP
0 NOFILE
0 FILE Telescope
0 Telescope
0 Name: Telescope
0 Author: 
0 CustomBrick
0 FlexibleBrickControlPointUnitLength -1
0 FlexibleBrickLockedControlPoint 
0 NumOfBricks 13
1 0 -16.340890 -24.000000 6.444070 0.000000 0.000000 -1.000000 0.000000 1.000000 0.000000 1.000000 0.000000 0.000000 3937.dat
1 71 -11.374170 -22.679380 6.444070 0.000000 -0.496671 -0.867939 0.000000 0.867939 -0.496671 1.000000 0.000000 0.000000 6134.dat
1 0 0.138420 -25.308650 -8.510509 0.753919 -0.496671 0.430028 0.431424 0.867939 0.246080 -0.495459 0.000000 0.868631 35480.dat
1 25 -24.759580 -39.556290 16.444080 0.000000 -0.496671 0.867939 0.000000 0.867939 0.496671 -1.000000 0.000000 0.000000 2420.dat
0 STEP
1 25 -4.160030 -55.420140 6.444080 0.867939 -0.496671 0.000000 0.496671 0.867939 0.000000 0.000000 0.000000 1.000000 3941.dat
1 15 15.706800 -90.137610 6.444080 0.867939 -0.496671 0.000000 0.496671 0.867939 0.000000 0.000000 0.000000 1.000000 87994.dat
0 STEP
1 25 19.597660 -41.824920 -13.465100 0.753918 -0.496671 0.430028 0.431424 0.867939 0.246080 -0.495459 0.000000 0.868631 3062b.dat
1 43 23.571010 -48.768470 -13.465110 0.753918 -0.496671 0.430028 0.431424 0.867939 0.246080 -0.495459 0.000000 0.868631 98138.dat
0 STEP
1 15 -0.186640 -62.363640 6.444080 0.867939 -0.496671 0.000000 0.496671 0.867939 0.000000 0.000000 0.000000 1.000000 4032a.dat
1 15 3.786670 -69.307100 6.444080 0.867939 -0.496671 0.000000 0.496671 0.867939 0.000000 0.000000 0.000000 1.000000 4032a.dat
1 15 7.760060 -76.250640 6.444080 0.867939 -0.496671 0.000000 0.496671 0.867939 0.000000 0.000000 0.000000 1.000000 18674.dat
0 STEP
1 47 10.005020 -80.173660 6.444080 -0.867939 0.496671 0.000000 -0.496671 -0.867939 0.000000 0.000000 0.000000 1.000000 4740.dat
1 43 13.978340 -87.117120 6.444080 -0.867939 0.496671 0.000000 -0.496671 -0.867939 0.000000 0.000000 0.000000 1.000000 85861.dat
0 STEP
0 NOFILE
