0 FILE Escape_Backpack_Minifigs.io
0 Untitled Model
0 Name: Escape_Backpack_Minifigs
0 Author: 
0 CustomBrick
0 FlexibleBrickControlPointUnitLength -1
0 FlexibleBrickLockedControlPoint 
0 NumOfBricks 38
1 15 -180.000000 -16.000000 61.250000 1.000000 0.000000 0.000000 0.000000 1.000000 0.000000 0.000000 0.000000 1.000000 bl_973pb4534c01.dat copy
1 15 -200.000000 -16.000000 71.250000 1.000000 0.000000 0.000000 0.000000 1.000000 0.000000 0.000000 0.000000 1.000000 73200b-f1.dat
1 71 -200.000000 -48.000020 71.250000 1.000000 0.000000 0.000000 0.000000 1.000000 0.000000 0.000000 0.000000 1.000000 93223.dat
1 14 -200.000000 -72.000000 71.250000 1.000000 0.000000 0.000000 0.000000 1.000000 0.000000 0.000000 0.000000 1.000000 bl_3626cpb2144.dat
1 71 -200.000000 -71.700000 71.250000 1.000000 0.000000 0.000000 0.000000 1.000000 0.000000 0.000000 0.000000 1.000000 21268.dat
1 2 -150.000000 24.000000 69.000000 1.000000 0.000000 0.000000 0.000000 1.000000 0.000000 0.000000 0.000000 1.000000 33320.dat
1 84 -177.424700 -28.120500 42.528190 0.675923 -0.728223 -0.113221 0.736944 0.669232 0.095096 0.006520 -0.147715 0.989008 25975p01.dat
1 0 -180.000000 24.000000 70.000000 1.000000 0.000000 0.000000 0.000000 1.000000 0.000000 0.000000 0.000000 1.000000 m72907a53_20251025_031040.dat
1 272 120.000000 -16.000000 91.249900 1.000000 0.000000 0.000000 0.000000 1.000000 -0.000003 0.000000 0.000003 1.000000 73200b-f1.dat
1 15 140.000400 -15.999940 81.249900 1.000001 0.000000 0.000000 0.000000 1.000000 0.000000 0.000000 0.000003 0.999998 bl_973pb3863c01.dat
1 14 120.000300 -71.999940 91.249690 1.000001 0.000000 0.000000 0.000000 1.000000 0.000000 0.000000 0.000003 0.999998 bl_28621pb0205.dat
1 25 50.000000 30.000000 80.000000 1.000000 0.000000 0.000000 0.000000 1.000000 0.000000 0.000000 0.000000 1.000000 2599.dat
1 25 80.000000 30.000000 80.000000 1.000000 0.000000 0.000000 0.000000 1.000000 0.000000 0.000000 0.000000 1.000000 2599.dat
1 0 170.000000 24.000000 90.300010 1.000000 0.000000 0.000000 0.000000 1.000000 0.000000 0.000000 0.000000 1.000000 36756pb01.dat
1 70 360.000000 -24.000060 71.249880 1.000000 0.000000 0.000000 0.000000 1.000000 -0.000003 0.000000 0.000003 1.000000 73200b-f1.dat
1 378 380.000000 -24.000060 61.249880 1.000000 0.000000 0.000000 0.000000 1.000000 0.000000 0.000000 0.000000 1.000000 bl_973pb5011c01.dat copy
1 0 360.000000 -80.000060 71.249880 1.000000 0.000000 0.000000 0.000000 1.000000 0.000000 0.000000 0.000000 1.000000 36806.dat
1 70 383.243900 -24.625290 45.660500 0.995457 0.094256 -0.013491 -0.094256 0.955398 -0.279876 -0.013491 0.279876 0.959942 93552p05.dat
1 28 410.000000 15.999950 69.999980 1.000000 0.000000 0.000000 0.000000 1.000000 0.000000 0.000000 0.000000 1.000000 41835.dat
1 14 360.000000 -80.000060 71.249880 1.000000 0.000000 0.000000 0.000000 1.000000 0.000000 0.000000 0.000000 1.000000 bl_28621pb0170.dat
1 72 610.000000 15.999950 69.999980 0.000000 0.000000 -1.000000 0.000000 1.000000 0.000000 1.000000 0.000000 0.000000 bl_2889pb01.dat
1 15 560.000000 -24.000050 71.249980 1.000000 0.000000 0.000000 0.000000 1.000000 0.000000 0.000000 0.000000 1.000000 bl_970c01pb67.dat
1 15 580.000000 -24.000050 61.249980 1.000000 0.000000 0.000000 0.000000 1.000000 0.000000 0.000000 0.000000 1.000000 bl_973pb5515c03.dat copy
1 0 556.822400 -40.999390 35.135100 0.999990 0.004415 -0.000922 -0.004509 0.982547 -0.185961 0.000085 0.185963 0.982557 30089.dat
1 47 556.829800 -39.511710 27.274640 0.999990 -0.000922 -0.004415 -0.004509 -0.185960 -0.982547 0.000085 0.982557 -0.185962 98138.dat
1 25 820.000000 -16.000050 91.249980 1.000000 0.000000 0.000000 0.000000 1.000000 0.000000 0.000000 0.000000 1.000000 bl_970c00pb1512.dat
1 25 840.000000 -16.000050 81.249980 1.000000 0.000000 0.000000 0.000000 1.000000 0.000000 0.000000 0.000000 1.000000 bl_973pb2017c01.dat copy
1 15 779.464500 -59.101660 56.441040 -0.099945 -0.704222 0.702910 -0.094799 -0.696494 -0.711273 0.990467 -0.137723 0.002852 93559.dat
1 0 870.000000 23.999950 89.999980 1.000000 0.000000 0.000000 0.000000 1.000000 0.000000 0.000000 0.000000 1.000000 13786pb01.dat
1 14 560.000000 -80.000060 71.249970 1.000000 0.000000 0.000000 0.000000 1.000000 0.000000 0.000000 0.000000 1.000000 3626cp7i.dat
1 14 820.000000 -72.000060 91.249970 1.000000 0.000000 0.000000 0.000000 1.000000 0.000000 0.000000 0.000000 1.000000 3626cpnb.dat
1 1 819.900100 -52.500040 92.489970 1.000000 0.000000 0.000000 0.000000 1.000000 0.000000 0.000000 0.000000 1.000000 bl_44751.dat
1 226 560.000000 -80.000060 71.249970 1.000000 0.000000 0.000000 0.000000 1.000000 0.000000 0.000000 0.000000 1.000000 26139.dat
1 25 120.000300 -71.999940 91.249690 1.000001 0.000000 0.000000 0.000000 1.000000 0.000000 0.000000 0.000003 0.999998 13785.dat
1 0 840.000000 23.999950 89.999980 1.000000 0.000000 0.000000 0.000000 1.000000 0.000000 0.000000 0.000000 1.000000 m72907a53_20251025_062623.dat
1 0 580.000000 15.999950 69.999980 1.000000 0.000000 0.000000 0.000000 1.000000 0.000000 0.000000 0.000000 1.000000 m72907a53_20251025_062613.dat
1 0 380.000000 15.999950 69.999980 1.000000 0.000000 0.000000 0.000000 1.000000 0.000000 0.000000 0.000000 1.000000 m72907a53_20251025_062553.dat
1 0 140.000000 24.000000 90.000000 1.000000 0.000000 0.000000 0.000000 1.000000 0.000000 0.000000 0.000000 1.000000 m72907a53_20251025_062604.dat
0 NOFILE
0 FILE bl_973pb4534c01.dat Copy
0 Torso Hospital Lab Coat over Medium Azure Scrubs, Silver Stethoscope Pattern / White Arms / Yellow Hands
0 Name: 973pb4534c01
0 Author: Studio
0 FlexibleBrick: bl_973pb4534c01.dat
0 FlexibleBrickControlPointUnitLength -1
0 FlexibleBrickLockedControlPoint 
1 16 -20.000000 -32.000000 10.000000 1.000000 0.000000 0.000000 0.000000 1.000000 0.000000 0.000000 0.000000 1.000000 bl_973pb4534c01_torso.dat
1 15 -35.574600 -23.092800 10.000000 0.985495 -0.169703 0.000000 0.169703 0.985495 0.000000 0.000000 0.000000 1.000000 3818.dat
1 15 -4.528200 -23.124300 10.000000 0.985328 0.141659 0.095191 -0.170671 0.817834 0.549562 0.000000 -0.557745 0.830012 3819.dat
1 14 -43.726500 -5.216940 0.500000 0.991565 0.048984 0.119998 0.048984 0.715542 -0.696850 -0.119998 0.696850 0.707107 3820.dat
1 14 2.138050 -13.934440 -8.897290 -0.648960 0.760112 -0.032856 -0.742650 -0.642251 -0.189699 -0.165294 -0.098705 0.981293 3820.dat
0 NOFILE
0 FILE bl_973pb5011c01.dat Copy
0 Torso Shirt with 3 Buttons and Dark Green Pockets over White Undershirt, Gold Badge, Medium Nougat Belt Pattern / Sand Green Arms / Yellow Hands
0 Name: 973pb5011c01
0 Author: 
0 FlexibleBrick: bl_973pb5011c01.dat
0 FlexibleBrickControlPointUnitLength -1
0 FlexibleBrickLockedControlPoint 
1 16 -20.000000 -32.000000 10.000000 1.000000 0.000000 0.000000 0.000000 1.000000 0.000000 0.000000 0.000000 1.000000 bl_973pb5011c01_torso.dat
1 378 -35.574600 -23.092800 10.000000 0.985495 -0.169703 0.000000 0.169703 0.985495 0.000000 0.000000 0.000000 1.000000 3818.dat
1 378 -4.528200 -23.124300 10.000000 0.985328 0.124618 0.116615 -0.170671 0.719449 0.673249 0.000000 -0.683274 0.730162 3819.dat
1 14 -43.726500 -5.216940 0.500000 0.991565 0.048984 0.119998 0.048984 0.715542 -0.696850 -0.119998 0.696850 0.707107 3820.dat
1 14 1.600020 -17.040620 -10.283820 0.995097 0.098743 -0.005658 -0.098876 0.994563 -0.032668 0.002402 0.033068 0.999450 3820.dat
0 NOFILE
0 FILE bl_973pb5515c03.dat Copy
0 Torso Reddish Orange and Black Classic Space Logo, Sand Blue Panel with Gold Lines, Dark Blue Trim Pattern / Dark Azure Arms / Dark Blue Hands
0 Name: 973pb5515c03
0 Author: Studio
0 FlexibleBrick: bl_973pb5515c03.dat
0 FlexibleBrickControlPointUnitLength -1
0 FlexibleBrickLockedControlPoint 
1 16 -20.000000 -32.000000 10.000000 1.000000 0.000000 0.000000 0.000000 1.000000 0.000000 0.000000 0.000000 1.000000 bl_973pb5515.dat
1 321 -35.574600 -23.092800 10.000000 0.985495 -0.109083 -0.130000 0.169703 0.633464 0.754933 0.000000 -0.766044 0.642788 3818.dat
1 321 -4.528200 -23.124300 10.000000 0.985328 0.170671 0.000000 -0.170671 0.985328 0.000000 0.000000 0.000000 1.000000 3819.dat
1 272 -41.339720 -19.077390 -10.661310 -0.999890 -0.000637 -0.014790 -0.000636 -0.996304 0.085892 -0.014791 0.085892 0.996195 3820.dat
1 272 3.641180 -5.256430 0.000000 0.991482 0.048980 -0.120682 -0.119745 0.707266 -0.696732 0.051229 0.705249 0.707107 3820.dat
0 NOFILE
0 FILE bl_973pb2017c01.dat Copy
0 Torso Safety Vest with Reflective Stripes over Medium Blue Shirt, ID Badge, Red Pen Around Neck Pattern / Medium Blue Arms / Yellow Hands
0 Name: 973pb2017c01
0 Author: Kevin
0 FlexibleBrick: bl_973pb2017c01.dat
0 FlexibleBrickControlPointUnitLength -1
0 FlexibleBrickLockedControlPoint 
1 16 -20.000000 -32.000000 10.000000 1.000000 0.000000 0.000000 0.000000 1.000000 0.000000 0.000000 0.000000 1.000000 973p8r.dat
1 73 -35.574600 -23.092800 10.000000 0.985495 -0.093665 -0.141513 0.169703 0.543931 0.821790 0.000000 -0.833885 0.551937 3818.dat
1 73 -4.528200 -23.124300 10.000000 0.985328 0.170671 0.000000 -0.170671 0.985328 0.000000 0.000000 0.000000 1.000000 3819.dat
1 14 -40.937430 -21.413660 -11.087200 0.676585 0.735587 -0.033834 -0.717143 0.668658 0.196476 0.167148 -0.108669 0.979925 3820.dat
1 14 3.641180 -5.256430 0.000000 0.991482 0.048980 -0.120682 -0.119745 0.707266 -0.696732 0.051229 0.705249 0.707107 3820.dat
0 NOFILE
