<svg xmlns="http://www.w3.org/2000/svg" viewBox="0 0 1000 300" role="img" aria-label="Sketch of a yeast packet, bubbling jar with airlock, and hourglass">
  <rect width="1000" height="300" fill="#efe3c5"/>
  <rect x="12" y="12" width="976" height="276" rx="3" fill="none" stroke="#ae9874" stroke-width="3"/>
  <g fill="none" stroke="#263f3a" stroke-width="6" stroke-linecap="round" stroke-linejoin="round">
    <!-- A recognizable yeast packet, with a torn top and a few spilled grains. -->
    <path d="M105 220 L105 82 L121 91 L138 78 L155 90 L172 78 L189 91 L205 82 L205 220 Z" fill="#f8f2df"/>
    <path d="M119 131 H191 M119 181 H191" stroke-width="3"/>
    <circle cx="221" cy="210" r="3" fill="#263f3a"/>
    <circle cx="230" cy="221" r="3" fill="#263f3a"/>
    <circle cx="215" cy="228" r="3" fill="#263f3a"/>

    <!-- Fermenting vessel: liquid, foam, bubbles and a hooked airlock. -->
    <path d="M435 93 H483 V123 C515 138 525 162 525 206 Q525 233 499 233 H419 Q393 233 393 206 C393 162 403 138 435 123 Z" fill="#f8f2df"/>
    <path d="M407 186 Q425 177 440 186 T474 186 T511 186" stroke-width="4"/>
    <path d="M434 95 V64 Q434 45 453 45 H483 Q501 45 501 63 V79 Q501 91 514 91 Q527 91 527 79 V58"/>
    <path d="M429 77 H488" stroke-width="3"/>
    <circle cx="440" cy="206" r="4"/>
    <circle cx="472" cy="197" r="5"/>
    <circle cx="458" cy="170" r="4"/>
    <circle cx="484" cy="154" r="3"/>

    <!-- Time passing. -->
    <path d="M751 74 H853 M751 225 H853 M761 81 L843 218 M843 81 L761 218"/>
    <path d="M771 93 H833 L802 144 Z" fill="#f8f2df"/>
    <path d="M771 207 H833 L802 156 Z" fill="#f8f2df"/>
    <path d="M790 198 H814 L802 179 Z" fill="#263f3a"/>
    <circle cx="802" cy="155" r="3" fill="#263f3a"/>
  </g>
  <g fill="#263f3a" font-family="Arial, sans-serif" text-anchor="middle">
    <text x="155" y="165" font-size="24" font-weight="700" letter-spacing="1">YEAST</text>
    <text x="319" y="171" font-size="45">+</text>
    <text x="647" y="171" font-size="45">+</text>
  </g>
</svg>
