<svg xmlns="http://www.w3.org/2000/svg" viewBox="0 0 708 200" role="img" aria-label="Constantinople rebus sketch: dotted sugar cubes on a spoon, fizzing flask, hourglass">
  <rect x="2" y="2" width="704" height="196" fill="#efe3c5" stroke="#a99678" stroke-width="2"/>
  <g transform="translate(10 12) scale(.58)" fill="none" stroke="#263f3a" stroke-width="8" stroke-linecap="round" stroke-linejoin="round">
    <path d="M43 145 L76 121 L109 145 L76 168 Z M43 145 V183 M76 168 V183 M109 145 V183"/>
    <path d="M108 145 L141 121 L174 145 L141 168 Z M108 145 V183 M141 168 V183 M174 145 V183"/>
    <path d="M76 91 L109 67 L142 91 L109 115 Z M76 91 V145 M109 115 V145 M142 91 V145"/>
    <path d="M36 182 Q39 222 76 232 Q135 250 179 210 Q190 199 204 190 C275 158 366 147 440 157 Q460 160 462 174 Q461 185 446 182 C368 168 281 180 220 206 Q202 214 190 229 Q148 258 83 250 Q42 243 36 207 Z"/>
    <path d="M38 183 H184"/>
  </g>
  <g transform="translate(10 12) scale(.58)" fill="#263f3a">
    <circle cx="101" cy="87" r="3.2"/><circle cx="120" cy="88" r="3.2"/>
    <circle cx="90" cy="117" r="3.2"/><circle cx="127" cy="123" r="3.2"/>
    <circle cx="64" cy="145" r="3.2"/><circle cx="58" cy="169" r="3.2"/>
    <circle cx="93" cy="174" r="3.2"/><circle cx="129" cy="145" r="3.2"/>
    <circle cx="122" cy="172" r="3.2"/><circle cx="156" cy="173" r="3.2"/>
  </g>
  <g fill="#263f3a" font-family="Arial, sans-serif" text-anchor="middle">
    <text x="300" y="115" font-size="28">+</text>
    <text x="497" y="115" font-size="28">+</text>
  </g>
  <g fill="none" stroke="#263f3a" stroke-width="5" stroke-linecap="round" stroke-linejoin="round">
    <path d="M351 43 H379 M357 43 V76 L323 147 Q319 158 331 162 H399 Q411 158 407 147 L373 76 V43"/>
    <path d="M337 136 Q353 129 365 136 T394 136" stroke-width="3"/>
    <circle cx="351" cy="120" r="3"/><circle cx="377" cy="118" r="3"/>
    <circle cx="365" cy="100" r="4"/><circle cx="358" cy="84" r="2.5"/>
    <circle cx="378" cy="72" r="2.5"/>
    <path d="M573 50 H644 M573 151 H644 M580 56 L637 145 M637 56 L580 145"/>
    <path d="M587 62 H630 L608 98 Z M587 139 H630 L608 104 Z" fill="#efe3c5"/>
    <path d="M599 135 H618 L608 120 Z" fill="#263f3a"/>
    <circle cx="608" cy="103" r="2.5" fill="#263f3a"/>
  </g>
</svg>
