<svg xmlns="http://www.w3.org/2000/svg" viewBox="0 0 64 64" role="img" aria-labelledby="title desc"><title id="title">Norse settlement — Carved woodcut</title><desc id="desc">Carved woodcut version of norse settlement.</desc><defs><style>.ink,.beak{fill:#283B34;stroke:#283B34;stroke-width:3.2}.accent{fill:#B56A2A;stroke:#283B34;stroke-width:3}.line,.detail,.accentline,.haft{fill:none;stroke:#283B34;stroke-width:3.2;stroke-linecap:square;stroke-linejoin:miter}.accentline{stroke:#B56A2A;stroke-dasharray:7 2}.haft{stroke-width:5}.detail{fill:#B56A2A;stroke-width:2}.boss{fill:#B56A2A;stroke:#283B34;stroke-width:4}.eye{fill:#B56A2A}</style></defs><g ><path class="line" d="M7 52V35l10-10 10 10v17M22 52V29l12-13 13 13v23M42 52V37l8-9 8 9v15M5 53h55"/><path class="accent" d="m5 35 12-13 12 13H5Zm15-6 14-16 16 16H20Zm20 8 10-12 11 12H40Z"/><path class="detail" d="M13 52V40h8v12m8 0V35h10v17m8 0V42h6v10"/></g></svg>
