<svg xmlns="http://www.w3.org/2000/svg" viewBox="0 0 64 64" role="img" aria-labelledby="title desc"><title id="title">Norse longship — Antique cartography</title><desc id="desc">Antique cartography version of norse longship.</desc><defs><pattern id="hatch" width="5" height="5" patternUnits="userSpaceOnUse" patternTransform="rotate(35)"><line x1="0" y1="0" x2="0" y2="5" stroke="#283B34" stroke-width="1"/></pattern><style>.ink{fill:url(#hatch);stroke:#283B34;stroke-width:1.7}.beak{fill:none;stroke:#283B34;stroke-width:1.7}.accent{fill:none;stroke:#B56A2A;stroke-width:1.7}.line,.detail,.accentline,.haft{fill:none;stroke:#283B34;stroke-width:1.7;stroke-linecap:round;stroke-linejoin:round}.accentline{stroke:#B56A2A;stroke-width:1.4}.haft{stroke-width:2.7}.detail{stroke-width:1.2}.boss{fill:url(#hatch);stroke:#283B34;stroke-width:1.8}.eye{fill:#283B34}</style></defs><g ><path class="ink" d="M7 40h50c-4 9-13 13-25 13S11 49 7 40Z"/><path class="line" d="M9 40c-3-4-2-8 2-11-1 5 1 8 6 11m40 0c4-2 6-7 5-11 4 3 4 8 0 12M31 12v28"/><path class="accent" d="M31 15h19v21H31Z"/><path class="line" d="M31 15H15l6 10-6 11h16M11 57c7-3 14-3 21 0s14 3 21 0"/><g class="detail"><circle cx="20" cy="43" r="2.7"/><circle cx="28" cy="43" r="2.7"/><circle cx="36" cy="43" r="2.7"/><circle cx="44" cy="43" r="2.7"/></g></g></svg>
