<svg xmlns="http://www.w3.org/2000/svg" width="1000" height="1000" viewBox="0 0 1000 1000">
<title>Raven penny relief profile</title>
<desc>Closed black relief shapes, no coin blank. Normalized 1000-unit canvas; art fits a radius of 460 around 500,500. Scale to chosen coin size.</desc>
<path fill="#000000" fill-rule="nonzero" d="M 105.670,311.541 L 106.353,310.858 L 106.353,307.444 L 107.036,306.761 L 108.402,298.568 L 111.816,289.008 L 114.547,285.594 L 117.961,285.594 L 143.909,307.444 L 152.785,313.590 L 166.442,321.101 L 167.807,322.466 L 180.098,328.612 L 181.464,328.612 L 184.878,330.660 L 186.243,330.660 L 193.072,334.074 L 196.486,334.757 L 198.534,336.123 L 212.873,340.903 L 219.702,342.268 L 222.433,343.634 L 229.944,344.999 L 230.627,345.682 L 232.675,345.682 L 233.358,344.999 L 200.583,323.832 L 177.367,305.396 L 158.931,286.277 L 154.151,279.449 L 148.688,268.523 L 145.957,258.964 L 145.957,256.233 L 145.274,255.550 L 145.274,251.453 L 144.591,250.770 L 144.591,236.431 L 145.274,235.748 L 145.274,230.968 L 145.957,230.285 L 145.957,226.871 L 148.005,220.726 L 148.005,218.677 L 152.785,205.704 L 159.613,192.730 L 165.076,185.219 L 168.490,181.805 L 171.904,181.805 L 173.270,183.171 L 180.098,197.510 L 186.243,207.752 L 205.362,234.382 L 231.310,263.061 L 246.332,277.400 L 268.182,295.836 L 296.178,315.638 L 313.248,325.880 L 331.002,334.757 L 332.367,334.757 L 340.561,338.854 L 341.927,338.854 L 352.169,344.317 L 360.363,351.828 L 362.411,354.559 L 371.971,374.361 L 380.848,383.920 L 386.310,387.334 L 390.407,388.700 L 392.456,388.700 L 393.138,389.383 L 401.332,389.383 L 406.112,388.017 L 411.575,385.286 L 421.134,376.409 L 428.645,366.167 L 434.108,354.559 L 436.156,348.414 L 435.473,347.731 L 422.500,349.779 L 421.817,350.462 L 420.451,349.779 L 420.451,347.048 L 437.522,314.273 L 441.619,308.127 L 440.936,306.761 L 439.570,307.444 L 435.473,307.444 L 434.791,308.127 L 428.645,308.810 L 427.962,308.127 L 427.962,306.079 L 444.350,280.814 L 458.689,261.012 L 458.006,260.330 L 451.178,260.330 L 450.495,261.012 L 447.764,261.012 L 446.399,258.964 L 457.324,245.990 L 475.760,227.554 L 486.685,219.360 L 496.927,213.898 L 498.293,213.898 L 501.707,211.849 L 507.852,209.801 L 519.460,207.752 L 520.143,207.070 L 524.240,207.070 L 524.923,206.387 L 548.822,206.387 L 549.505,207.070 L 554.284,207.070 L 554.967,207.752 L 561.795,208.435 L 574.086,213.215 L 581.597,218.677 L 585.011,222.774 L 610.276,227.554 L 613.690,228.920 L 619.835,229.603 L 625.981,231.651 L 634.174,233.017 L 634.857,233.700 L 637.589,233.700 L 657.390,239.162 L 659.439,239.162 L 660.122,239.845 L 662.170,239.845 L 664.901,241.211 L 669.681,241.893 L 672.412,243.259 L 677.192,243.942 L 679.924,245.308 L 681.972,245.308 L 686.752,247.356 L 688.800,247.356 L 694.946,249.404 L 701.091,253.501 L 703.822,258.281 L 703.822,260.330 L 700.408,262.378 L 691.531,263.061 L 686.752,264.427 L 683.338,264.427 L 682.655,265.109 L 678.558,265.109 L 673.778,266.475 L 670.364,266.475 L 669.681,267.158 L 666.267,267.158 L 665.584,267.841 L 661.487,267.841 L 656.708,269.206 L 653.293,269.206 L 652.611,269.889 L 648.514,269.889 L 643.734,271.255 L 640.320,271.255 L 639.637,271.938 L 636.223,271.938 L 635.540,272.620 L 631.443,272.620 L 626.663,273.986 L 623.249,273.986 L 622.566,274.669 L 618.470,274.669 L 613.690,276.034 L 610.276,276.034 L 609.593,276.717 L 606.179,276.717 L 605.496,277.400 L 602.082,277.400 L 601.399,278.083 L 597.985,278.083 L 597.302,278.766 L 593.888,278.766 L 593.205,279.449 L 580.914,280.814 L 576.817,283.546 L 569.989,291.057 L 566.575,297.885 L 565.892,302.665 L 565.209,303.347 L 565.209,314.955 L 567.941,324.515 L 575.452,340.220 L 578.866,345.682 L 579.549,349.096 L 578.183,350.462 L 569.306,347.731 L 568.624,349.096 L 569.989,353.193 L 580.914,377.775 L 584.328,381.872 L 588.425,385.286 L 595.936,388.700 L 597.985,388.700 L 598.668,389.383 L 606.862,389.383 L 613.690,387.334 L 618.470,384.603 L 626.663,376.409 L 631.443,368.215 L 632.809,363.436 L 635.540,357.973 L 640.320,351.145 L 647.831,344.317 L 659.439,338.171 L 667.633,335.440 L 684.020,327.246 L 685.386,325.880 L 691.531,323.149 L 701.774,317.004 L 718.162,306.079 L 731.818,295.836 L 752.985,278.083 L 774.153,257.598 L 794.638,234.382 L 804.197,222.092 L 815.122,205.704 L 821.950,192.730 L 823.316,191.365 L 827.413,182.488 L 828.779,181.805 L 832.193,181.805 L 841.752,194.779 L 848.580,208.435 L 849.263,211.849 L 851.995,217.995 L 851.995,220.043 L 854.043,225.506 L 854.043,228.237 L 854.726,228.920 L 854.726,233.017 L 855.409,233.700 L 855.409,252.819 L 854.726,253.501 L 854.726,256.915 L 854.043,257.598 L 853.360,263.061 L 849.946,272.620 L 844.484,282.180 L 839.021,289.008 L 821.268,306.761 L 806.928,318.369 L 792.589,328.612 L 766.642,344.999 L 767.325,345.682 L 769.373,345.682 L 775.519,343.634 L 777.567,343.634 L 780.298,342.268 L 787.127,340.903 L 803.514,335.440 L 817.171,329.295 L 818.536,329.295 L 833.558,321.784 L 856.091,307.444 L 873.162,293.788 L 882.039,285.594 L 884.087,284.911 L 886.818,286.277 L 889.550,292.422 L 892.964,303.347 L 893.647,310.858 L 894.330,311.541 L 894.330,332.026 L 893.647,332.709 L 893.647,336.806 L 892.964,337.488 L 892.281,342.951 L 890.915,345.682 L 890.915,347.731 L 884.770,361.387 L 876.576,372.312 L 864.285,382.555 L 851.312,390.066 L 849.946,390.066 L 845.166,392.797 L 838.338,394.845 L 836.290,396.211 L 815.805,402.357 L 803.514,404.405 L 800.100,405.771 L 784.395,407.819 L 783.712,408.502 L 774.153,409.185 L 773.470,409.868 L 769.373,409.868 L 768.690,410.550 L 762.545,410.550 L 760.496,411.916 L 765.276,413.282 L 775.519,413.964 L 776.201,414.647 L 783.030,414.647 L 783.712,415.330 L 791.906,415.330 L 792.589,416.013 L 824.682,416.013 L 825.365,415.330 L 839.021,414.647 L 839.704,413.964 L 843.801,413.964 L 844.484,413.282 L 855.409,411.916 L 858.823,410.550 L 867.017,409.185 L 872.479,407.136 L 874.528,407.136 L 877.259,405.771 L 879.307,405.771 L 892.281,400.991 L 895.012,400.991 L 897.061,402.357 L 897.744,404.405 L 897.061,419.427 L 896.378,420.110 L 894.330,431.718 L 891.598,439.229 L 886.818,448.788 L 881.356,456.982 L 871.114,467.907 L 865.651,472.004 L 855.409,477.467 L 849.263,479.515 L 842.435,480.198 L 841.752,480.881 L 836.290,480.881 L 835.607,481.564 L 815.122,481.564 L 814.439,480.881 L 806.928,480.881 L 806.246,480.198 L 800.100,480.198 L 799.417,479.515 L 795.320,479.515 L 794.638,478.833 L 790.541,478.833 L 789.858,478.150 L 785.761,478.150 L 785.078,477.467 L 778.250,476.784 L 777.567,476.101 L 774.153,476.101 L 770.056,474.736 L 767.325,474.736 L 766.642,474.053 L 763.911,474.053 L 763.228,473.370 L 760.496,473.370 L 759.814,472.687 L 757.082,472.687 L 753.668,471.321 L 747.523,470.639 L 744.109,469.273 L 742.060,469.273 L 741.377,469.956 L 766.642,482.247 L 798.052,493.855 L 800.100,493.855 L 815.122,498.634 L 823.316,500.000 L 826.730,501.366 L 829.461,501.366 L 832.876,502.731 L 854.043,506.145 L 854.726,506.828 L 856.774,506.828 L 858.140,508.194 L 858.823,511.608 L 854.043,521.850 L 843.801,536.190 L 838.338,541.652 L 832.193,546.432 L 817.171,554.626 L 805.563,558.040 L 802.149,558.040 L 801.466,558.723 L 787.127,558.723 L 786.444,558.040 L 783.030,558.040 L 782.347,557.357 L 778.933,557.357 L 775.519,555.991 L 773.470,555.991 L 756.400,549.846 L 752.985,547.798 L 751.620,547.798 L 732.501,538.238 L 716.796,528.679 L 713.382,527.313 L 692.897,514.339 L 692.214,515.022 L 701.774,528.679 L 716.796,546.432 L 737.281,566.917 L 750.254,577.842 L 750.937,581.256 L 749.571,583.304 L 735.232,590.815 L 722.941,594.229 L 710.650,594.912 L 709.968,595.595 L 709.285,594.912 L 699.043,594.912 L 698.360,594.229 L 690.849,593.547 L 682.655,590.815 L 680.606,590.815 L 678.558,589.450 L 671.730,587.401 L 656.708,579.890 L 634.174,564.185 L 615.055,546.432 L 602.765,532.775 L 600.716,536.190 L 600.033,539.604 L 595.936,547.798 L 595.936,549.163 L 590.474,560.088 L 589.108,561.454 L 588.425,564.185 L 594.571,582.621 L 595.936,584.670 L 596.619,588.084 L 597.985,590.132 L 598.668,593.547 L 600.033,595.595 L 600.716,599.009 L 604.130,607.203 L 621.884,630.419 L 634.174,643.393 L 654.659,648.172 L 657.390,649.538 L 659.439,649.538 L 665.584,651.586 L 677.192,657.049 L 684.020,661.829 L 689.483,667.291 L 692.897,672.754 L 694.263,676.851 L 693.580,683.679 L 691.531,687.776 L 686.752,691.873 L 682.655,693.239 L 677.875,693.239 L 671.730,690.507 L 664.901,682.313 L 659.439,678.216 L 651.928,674.802 L 646.465,674.120 L 645.782,673.437 L 641.685,673.437 L 637.589,675.485 L 635.540,678.216 L 634.857,682.996 L 634.174,683.679 L 634.174,691.190 L 633.492,693.239 L 628.712,698.701 L 624.615,700.750 L 617.104,700.750 L 613.007,698.701 L 609.593,695.287 L 607.544,690.507 L 607.544,680.948 L 608.227,680.265 L 608.910,665.243 L 609.593,664.560 L 609.593,655.683 L 605.496,648.855 L 591.840,631.102 L 586.377,625.639 L 565.209,614.031 L 555.650,607.886 L 550.870,605.837 L 549.505,608.569 L 549.505,614.714 L 550.187,615.397 L 550.870,621.542 L 555.650,634.516 L 563.161,649.538 L 564.527,650.904 L 566.575,655.683 L 576.817,672.754 L 596.619,702.798 L 598.668,704.846 L 608.910,720.551 L 632.809,754.010 L 634.174,757.424 L 634.174,760.838 L 632.126,765.618 L 628.712,770.397 L 618.470,780.640 L 608.910,787.468 L 599.351,792.930 L 597.985,792.930 L 593.205,795.662 L 587.060,797.710 L 580.232,798.393 L 577.500,797.027 L 575.452,794.979 L 573.403,790.882 L 567.941,775.860 L 565.892,772.446 L 563.161,764.252 L 561.113,760.838 L 554.284,742.402 L 552.919,740.353 L 552.919,738.988 L 550.870,735.573 L 546.773,723.966 L 545.408,721.917 L 543.359,715.089 L 541.311,711.675 L 537.897,701.432 L 534.482,694.604 L 531.068,684.362 L 529.020,680.948 L 528.337,682.996 L 529.703,687.093 L 529.703,689.824 L 530.386,690.507 L 530.386,693.239 L 531.068,693.921 L 531.068,696.653 L 531.751,697.335 L 531.751,700.067 L 532.434,700.750 L 532.434,703.481 L 533.117,704.164 L 533.117,706.895 L 533.800,707.578 L 533.800,710.309 L 534.482,710.992 L 534.482,713.723 L 535.165,714.406 L 535.165,717.137 L 535.848,717.820 L 535.848,720.551 L 536.531,721.234 L 536.531,724.648 L 537.897,728.745 L 537.897,731.477 L 538.579,732.159 L 538.579,734.891 L 539.262,735.573 L 539.262,738.305 L 539.945,738.988 L 539.945,741.719 L 540.628,742.402 L 540.628,745.133 L 541.311,745.816 L 541.311,748.547 L 541.994,749.230 L 541.994,751.961 L 542.676,752.644 L 542.676,755.375 L 543.359,756.058 L 543.359,759.472 L 544.725,763.569 L 544.725,766.300 L 545.408,766.983 L 545.408,769.715 L 546.090,770.397 L 546.090,773.811 L 547.456,777.908 L 547.456,780.640 L 548.139,781.323 L 548.139,784.054 L 548.822,784.737 L 548.822,787.468 L 549.505,788.151 L 549.505,790.882 L 550.187,791.565 L 550.187,794.296 L 550.870,794.979 L 550.870,797.710 L 551.553,798.393 L 550.870,803.173 L 547.456,807.953 L 544.042,810.001 L 542.676,810.001 L 539.262,812.049 L 533.117,814.098 L 525.606,815.464 L 524.923,816.146 L 518.095,816.829 L 517.412,817.512 L 511.267,817.512 L 510.584,818.195 L 488.733,818.195 L 488.051,817.512 L 482.588,817.512 L 481.905,816.829 L 478.491,816.829 L 477.808,816.146 L 475.077,816.146 L 468.932,814.098 L 466.883,814.098 L 460.738,812.049 L 452.544,807.953 L 449.813,805.221 L 448.447,801.124 L 452.544,777.908 L 453.227,777.226 L 453.227,774.494 L 453.910,773.811 L 453.910,771.080 L 454.592,770.397 L 454.592,767.666 L 455.275,766.983 L 455.275,763.569 L 456.641,759.472 L 456.641,756.741 L 457.324,756.058 L 457.324,753.327 L 458.006,752.644 L 458.006,749.913 L 458.689,749.230 L 458.689,745.816 L 460.055,741.719 L 460.055,738.988 L 460.738,738.305 L 460.738,735.573 L 461.421,734.891 L 461.421,732.159 L 462.103,731.477 L 462.103,728.745 L 462.786,728.062 L 462.786,725.331 L 463.469,724.648 L 463.469,721.917 L 464.152,721.234 L 464.152,718.503 L 464.835,717.820 L 464.835,715.089 L 465.518,714.406 L 465.518,711.675 L 466.200,710.992 L 466.200,708.261 L 466.883,707.578 L 466.883,704.164 L 468.249,700.067 L 468.249,697.335 L 468.932,696.653 L 468.932,693.921 L 469.614,693.239 L 469.614,690.507 L 470.297,689.824 L 470.297,687.093 L 470.980,686.410 L 470.980,683.679 L 471.663,682.996 L 471.663,680.948 L 470.980,680.265 L 464.835,694.604 L 464.152,698.018 L 462.103,701.432 L 461.421,704.846 L 454.592,720.551 L 454.592,721.917 L 453.227,723.966 L 453.227,725.331 L 451.861,727.380 L 451.861,728.745 L 450.495,730.794 L 450.495,732.159 L 449.130,734.208 L 449.130,735.573 L 447.764,737.622 L 447.764,738.988 L 446.399,741.036 L 446.399,742.402 L 445.033,744.450 L 445.033,745.816 L 443.667,747.864 L 443.667,749.230 L 442.302,751.278 L 442.302,752.644 L 440.936,754.692 L 440.936,756.058 L 439.570,758.107 L 439.570,759.472 L 437.522,762.886 L 430.694,781.323 L 425.914,791.565 L 425.914,792.930 L 421.817,797.710 L 415.672,798.393 L 405.429,794.979 L 394.504,789.516 L 384.262,782.688 L 371.971,771.080 L 367.191,764.252 L 365.826,760.155 L 367.191,754.010 L 412.257,689.824 L 412.940,687.776 L 427.962,665.243 L 435.473,650.904 L 436.839,649.538 L 445.033,633.150 L 445.033,631.785 L 448.447,624.274 L 449.130,619.494 L 449.813,618.811 L 449.813,615.397 L 450.495,614.714 L 450.495,607.886 L 449.130,605.837 L 412.257,626.322 L 396.553,646.124 L 390.407,656.366 L 390.407,663.877 L 391.090,664.560 L 391.090,671.388 L 391.773,672.071 L 391.773,679.582 L 392.456,680.265 L 392.456,691.190 L 390.407,695.287 L 386.993,698.701 L 382.896,700.750 L 375.385,700.750 L 371.288,698.701 L 367.874,695.287 L 365.826,691.190 L 365.826,683.679 L 365.143,682.996 L 365.143,679.582 L 363.777,676.851 L 360.363,674.120 L 358.315,673.437 L 354.218,673.437 L 353.535,674.120 L 348.072,674.802 L 341.927,677.534 L 337.830,680.265 L 327.588,691.190 L 322.125,693.239 L 317.345,693.239 L 313.248,691.873 L 309.151,688.459 L 306.420,683.679 L 305.737,678.216 L 306.420,677.534 L 306.420,674.802 L 309.151,669.340 L 315.297,662.512 L 322.808,657.049 L 334.416,651.586 L 342.610,648.855 L 365.826,643.393 L 378.799,629.736 L 382.896,623.591 L 396.553,606.520 L 401.332,592.181 L 402.698,590.132 L 404.064,584.670 L 406.795,579.207 L 411.575,564.185 L 411.575,562.820 L 402.698,545.749 L 402.698,544.383 L 400.649,540.969 L 397.918,533.458 L 397.235,532.775 L 377.434,553.943 L 365.826,564.185 L 343.292,579.890 L 331.684,586.036 L 330.319,586.036 L 326.905,588.084 L 317.345,591.498 L 309.834,592.864 L 309.151,593.547 L 306.420,593.547 L 305.737,594.229 L 292.764,594.912 L 292.081,595.595 L 277.059,594.229 L 264.768,590.815 L 251.794,583.987 L 249.063,581.256 L 249.063,579.890 L 254.526,573.745 L 262.719,566.917 L 282.521,547.115 L 289.350,539.604 L 307.786,515.705 L 307.103,514.339 L 273.645,534.824 L 248.380,547.798 L 247.015,547.798 L 238.821,551.894 L 221.067,557.357 L 213.556,558.040 L 212.873,558.723 L 199.217,558.723 L 198.534,558.040 L 194.437,558.040 L 181.464,553.943 L 173.270,549.846 L 164.393,543.701 L 157.565,537.555 L 148.005,525.264 L 141.860,512.974 L 141.860,510.925 L 141.177,510.242 L 142.543,507.511 L 145.957,506.145 L 152.785,505.463 L 156.882,504.097 L 159.613,504.097 L 160.296,503.414 L 163.028,503.414 L 163.710,502.731 L 166.442,502.731 L 167.124,502.048 L 169.856,502.048 L 173.270,500.683 L 176.001,500.683 L 187.609,497.269 L 189.658,497.269 L 192.389,495.903 L 194.437,495.903 L 197.169,494.537 L 199.217,494.537 L 219.702,487.709 L 225.164,484.978 L 228.578,484.295 L 244.283,476.784 L 245.649,476.784 L 258.623,469.956 L 256.574,469.273 L 249.746,471.321 L 236.772,473.370 L 229.944,475.418 L 227.213,475.418 L 226.530,476.101 L 210.825,478.150 L 210.142,478.833 L 206.045,478.833 L 205.362,479.515 L 201.266,479.515 L 200.583,480.198 L 185.561,480.881 L 184.878,481.564 L 165.076,481.564 L 164.393,480.881 L 154.151,480.198 L 143.226,476.784 L 131.618,469.956 L 122.058,461.079 L 112.499,447.423 L 105.670,431.035 L 103.622,419.427 L 102.939,418.744 L 102.939,413.282 L 102.256,412.599 L 102.256,404.405 L 103.622,401.674 L 104.988,400.991 L 108.402,400.991 L 110.450,402.357 L 112.499,402.357 L 125.472,407.136 L 132.983,408.502 L 138.446,410.550 L 151.420,412.599 L 152.102,413.282 L 160.296,413.964 L 160.979,414.647 L 173.953,415.330 L 174.635,416.013 L 208.094,416.013 L 208.777,415.330 L 217.653,415.330 L 218.336,414.647 L 224.481,414.647 L 225.164,413.964 L 229.944,413.964 L 230.627,413.282 L 235.407,413.282 L 239.504,411.916 L 236.772,410.550 L 231.310,410.550 L 230.627,409.868 L 220.385,409.185 L 219.702,408.502 L 215.605,408.502 L 210.825,407.136 L 207.411,407.136 L 206.728,406.453 L 203.314,406.453 L 202.631,405.771 L 193.072,404.405 L 189.658,403.039 L 186.926,403.039 L 180.781,400.991 L 178.732,400.991 L 176.001,399.625 L 173.953,399.625 L 161.662,395.528 L 150.054,390.066 L 148.688,390.066 L 137.763,383.920 L 130.935,379.141 L 124.790,373.678 L 117.961,365.484 L 110.450,351.145 L 107.036,339.537 L 106.353,332.709 L 105.670,332.026 Z M 540.628,223.457 L 536.531,225.506 L 531.751,230.285 L 529.703,235.748 L 529.703,242.576 L 532.434,248.039 L 537.897,252.819 L 541.311,254.184 L 549.505,254.184 L 555.650,250.770 L 559.064,246.673 L 561.113,241.211 L 560.430,233.700 L 557.698,228.920 L 552.919,224.823 L 546.773,222.774 Z"/>
</svg>
