<svg xmlns="http://www.w3.org/2000/svg" viewBox="0 0 64 64" role="img" aria-labelledby="title desc"><title id="title">Norse longhouse — Hand drawn</title><desc id="desc">Hand drawn version of norse longhouse.</desc><defs><filter id="wobble" x="-15%" y="-15%" width="130%" height="130%"><feTurbulence type="fractalNoise" baseFrequency="0.025" numOctaves="2" seed="8" result="noise"/><feDisplacementMap in="SourceGraphic" in2="noise" scale="1.3"/></filter><style>.ink,.beak{fill:none;stroke:#283B34;stroke-width:2.5}.accent{fill:none;stroke:#B56A2A;stroke-width:2.4}.line,.detail,.accentline,.haft{fill:none;stroke:#283B34;stroke-width:2.5;stroke-linecap:round;stroke-linejoin:round}.accentline{stroke:#B56A2A}.haft{stroke-width:3.5}.detail{stroke:#B56A2A;stroke-width:1.6}.boss{fill:none;stroke:#283B34;stroke-width:2.6}.eye{fill:#B56A2A}</style></defs><g opacity=".24" transform="translate(.8 .5)"><path class="line" d="M10 33v19h43V33M20 35v17m27-17v17M28 52V39h10v13M7 53h49"/><path class="accent" d="M7 32 22 17h27l8 15-9 4H21Z"/><path class="detail" d="M15 40v7m29-7v7M13 27c11-5 25-7 39-5"/></g><g filter="url(#wobble)"><path class="line" d="M10 33v19h43V33M20 35v17m27-17v17M28 52V39h10v13M7 53h49"/><path class="accent" d="M7 32 22 17h27l8 15-9 4H21Z"/><path class="detail" d="M15 40v7m29-7v7M13 27c11-5 25-7 39-5"/></g></svg>
