<svg xmlns="http://www.w3.org/2000/svg" viewBox="0 0 64 64" role="img" aria-labelledby="title desc"><title id="title">Raven — Hand drawn</title><desc id="desc">Hand drawn version of raven.</desc><defs><filter id="wobble" x="-15%" y="-15%" width="130%" height="130%"><feTurbulence type="fractalNoise" baseFrequency="0.025" numOctaves="2" seed="8" result="noise"/><feDisplacementMap in="SourceGraphic" in2="noise" scale="1.3"/></filter><style>.ink,.beak{fill:none;stroke:#283B34;stroke-width:2.5}.accent{fill:none;stroke:#B56A2A;stroke-width:2.4}.line,.detail,.accentline,.haft{fill:none;stroke:#283B34;stroke-width:2.5;stroke-linecap:round;stroke-linejoin:round}.accentline{stroke:#B56A2A}.haft{stroke-width:3.5}.detail{stroke:#B56A2A;stroke-width:1.6}.boss{fill:none;stroke:#283B34;stroke-width:2.6}.eye{fill:#B56A2A}</style></defs><g opacity=".24" transform="translate(.8 .5)"><path class="ink" d="M9 47c9-2 14-9 15-19 1-10 8-16 18-15 7 0 12 4 14 10l8 4-11 4c0 7-3 12-9 16l10 8-17-5c-9 3-19 2-28-3Z"/><path class="beak" d="m53 22 11 5-12 4 4-4Z"/><path class="accentline" d="M19 43c9-1 17 1 25 7m-18-16c8 1 14 5 18 11"/><circle class="eye" cx="47" cy="20" r="1.7"/><path class="line" d="M29 50v6m8-7v7m-11 1h7m1 0h7"/></g><g filter="url(#wobble)"><path class="ink" d="M9 47c9-2 14-9 15-19 1-10 8-16 18-15 7 0 12 4 14 10l8 4-11 4c0 7-3 12-9 16l10 8-17-5c-9 3-19 2-28-3Z"/><path class="beak" d="m53 22 11 5-12 4 4-4Z"/><path class="accentline" d="M19 43c9-1 17 1 25 7m-18-16c8 1 14 5 18 11"/><circle class="eye" cx="47" cy="20" r="1.7"/><path class="line" d="M29 50v6m8-7v7m-11 1h7m1 0h7"/></g></svg>
